<svg width="147" height="150" viewBox="0 0 147 150" fill="none" xmlns="http://www.w3.org/2000/svg">
<rect x="15.2278" y="58.241" width="19" height="41" fill="black"/>
<rect x="113.228" y="58.241" width="18" height="41" fill="black"/>
<line y1="-0.5" x2="38.3106" y2="-0.5" transform="matrix(0.587759 -0.809036 0.800045 0.59994 24.9243 58.4709)" stroke="black"/>
<line y1="-0.5" x2="38.3106" y2="-0.5" transform="matrix(0.587759 -0.809036 0.800045 0.59994 24.9243 58.4709)" stroke="black"/>
<line x1="45.2278" y1="26.741" x2="98.2278" y2="26.741" stroke="black"/>
<line y1="-0.5" x2="39.1821" y2="-0.5" transform="matrix(0.611763 0.791041 -0.781531 0.623866 98.2875 27.4764)" stroke="black"/>
<circle cx="73.241" cy="73.241" r="73" transform="rotate(-0.189458 73.241 73.241)" fill="#B5B5B5"/>
<circle cx="73.7278" cy="78.741" r="39.5" fill="white"/>
<path d="M69.6765 126.507C72.0369 128.96 75.9631 128.96 78.3235 126.507L111.855 91.6603C115.523 87.8484 112.821 81.5 107.531 81.5H40.4688C35.1788 81.5 32.4774 87.8484 36.1453 91.6603L69.6765 126.507Z" fill="black"/>
<rect x="17" y="58" width="18" height="41" rx="5" fill="black"/>
<rect x="113" y="58" width="18" height="41" rx="6" fill="black"/>
<path d="M22 66C22 53.8 27.4786 42.0998 37.2304 33.4731C46.9823 24.8464 60.2087 20 74 20C87.7912 20 101.018 24.8464 110.77 33.4731C120.521 42.0998 126 53.8 126 66L119.138 66C119.138 55.41 114.382 45.2538 105.917 37.7655C97.4522 30.2773 85.9713 26.0704 74 26.0704C62.0287 26.0704 50.5478 30.2773 42.0828 37.7655C33.6178 45.2538 28.8622 55.41 28.8622 66H22Z" fill="black"/>
</svg>
